<svg width="18" height="18" viewBox="0 0 18 18" fill="none" xmlns="http://www.w3.org/2000/svg">
<path fill-rule="evenodd" clip-rule="evenodd" d="M0.99975 8C0.99975 7.744 1.09775 7.488 1.29275 7.293L8.29275 0.293C8.38875 0.196 8.49975 0.124 8.61875 0.0749996C8.73475 0.0269996 8.86275 -3.5569e-07 8.99675 -3.49833e-07L9.00275 -3.49571e-07C9.13675 -3.43714e-07 9.26475 0.0269997 9.38075 0.0749997C9.49975 0.124 9.61075 0.196 9.70675 0.293L16.7067 7.293C17.0977 7.684 17.0977 8.316 16.7067 8.707C16.3157 9.098 15.6837 9.098 15.2927 8.707L9.99975 3.414L9.99975 17C9.99975 17.553 9.55275 18 8.99975 18C8.44675 18 7.99975 17.553 7.99975 17L7.99975 3.414L2.70675 8.707C2.31575 9.098 1.68375 9.098 1.29275 8.707C1.09775 8.512 0.99975 8.256 0.99975 8Z" fill="white"/>
<mask id="mask0" mask-type="alpha" maskUnits="userSpaceOnUse" x="0" y="0" width="17" height="18">
<path fill-rule="evenodd" clip-rule="evenodd" d="M0.99975 8C0.99975 7.744 1.09775 7.488 1.29275 7.293L8.29275 0.293C8.38875 0.196 8.49975 0.124 8.61875 0.0749996C8.73475 0.0269996 8.86275 -3.5569e-07 8.99675 -3.49833e-07L9.00275 -3.49571e-07C9.13675 -3.43714e-07 9.26475 0.0269997 9.38075 0.0749997C9.49975 0.124 9.61075 0.196 9.70675 0.293L16.7067 7.293C17.0977 7.684 17.0977 8.316 16.7067 8.707C16.3157 9.098 15.6837 9.098 15.2927 8.707L9.99975 3.414L9.99975 17C9.99975 17.553 9.55275 18 8.99975 18C8.44675 18 7.99975 17.553 7.99975 17L7.99975 3.414L2.70675 8.707C2.31575 9.098 1.68375 9.098 1.29275 8.707C1.09775 8.512 0.99975 8.256 0.99975 8Z" fill="white"/>
</mask>
<g mask="url(#mask0)">
</g>
</svg>
