<svg xmlns="http://www.w3.org/2000/svg" viewBox="0 0 43.29 41.42"><defs><style>.cls-1{fill:#5cbf87;}</style></defs><title>Asset 1</title><g id="Layer_2" data-name="Layer 2"><g id="Layer_1-2" data-name="Layer 1"><polygon class="cls-1" points="38.39 24.21 38.34 24.25 38.4 24.23 38.39 24.21"/><path class="cls-1" d="M22.57,16.2c-1.2,0-2.69-.28-3-1.6-.47-1.91,2.32-3,2.43-3.1l6.79-1.95L26.51,6.09h0l-.05.06a1.72,1.72,0,0,1-2.43,0,1.81,1.81,0,0,1-.35-.53,1.7,1.7,0,0,1-2-.29,1.67,1.67,0,0,1-.49-1.18h0L9.92,6.68a1.68,1.68,0,0,1,.21.81A1.71,1.71,0,0,1,8.9,9.13,1.8,1.8,0,0,1,9,9.75a1.71,1.71,0,0,1-1.45,1.69l7.85,15,.06,0a1.7,1.7,0,0,1,2.34.61,1.72,1.72,0,0,1,.21.6,1.72,1.72,0,0,1,1.9.79,1.68,1.68,0,0,1,.2,1.13l14.46-4.2a2.29,2.29,0,0,1-.07-.28,1.72,1.72,0,0,1,1-1.79,1.53,1.53,0,0,1-.21-.6,1.71,1.71,0,0,1,.91-1.75l-4.37-6.66c-1.63.42-4.06,1-7.71,1.79A8.12,8.12,0,0,1,22.57,16.2Z"/><polygon class="cls-1" points="1.4 5.48 1.39 5.53 2.95 8.45 1.4 5.48"/><polygon class="cls-1" points="43.29 33.49 43.03 32.58 16.16 40.43 16.16 35.26 1.02 6.95 0 10.86 16.16 41.42 16.16 41.42 16.16 41.42 43.29 33.49"/><polygon class="cls-1" points="2.95 8.45 2.95 8.45 8.78 19.6 2.95 8.45"/><path class="cls-1" d="M42.68,26,34.46,13.47c-.34.13-.84.3-1.58.51L40,24.81l-23,6.7L4.1,7,25.16,2.21l4.63,7.05L31.4,8.8,25.63,0,1.4,5.48,3,8.45,16.43,33.64Z"/><polygon class="cls-1" points="16.16 33.72 16.43 33.64 2.95 8.45 8.78 19.6 16.16 33.72"/><polygon class="cls-1" points="16.16 33.72 16.16 33.72 8.78 19.6 16.16 33.72"/><path class="cls-1" d="M33.48,10.15a1.35,1.35,0,0,0-1.38-.51l-.13,0-1.61.47-1,.29-7,2c-.5.2-2,1-1.79,1.91.27,1.08,2.61.87,3.41.71,2.28-.49,5.17-1.16,7.34-1.71l1-.27c.68-.18,1.23-.34,1.61-.47a2.93,2.93,0,0,0,.38-.14A3.46,3.46,0,0,0,33.48,10.15ZM23.14,14.44a.8.8,0,1,1,.79-.79A.79.79,0,0,1,23.14,14.44Z"/><polygon class="cls-1" points="42.38 28.29 42.38 26.87 16.8 34.35 16.8 35.43 23.38 34.19 16.8 36 16.8 36.97 29.8 33.93 16.8 37.9 16.8 38.65 42.38 31.2 42.38 28.78 29 31.96 42.38 28.29"/></g></g></svg>